solid Created by Gmsh
facet normal 0 -1 0
  outer loop
    vertex 5.32 0.48 0
    vertex 5.32 0.48 0.5
    vertex 5.2 0.48 0
  endloop
endfacet
facet normal -0 -1 0
  outer loop
    vertex 5.32 0.48 0.5
    vertex 5.2 0.48 0.5
    vertex 5.2 0.48 0
  endloop
endfacet
facet normal 0 0 1
  outer loop
    vertex 5.32 0.48 0.5
    vertex 5.26 0.5399999999999999 0.5
    vertex 5.2 0.48 0.5
  endloop
endfacet
facet normal -0 0 1
  outer loop
    vertex 5.2 0.6 0.5
    vertex 5.26 0.5399999999999999 0.5
    vertex 5.32 0.6 0.5
  endloop
endfacet
facet normal 0 0 1
  outer loop
    vertex 5.2 0.48 0.5
    vertex 5.26 0.5399999999999999 0.5
    vertex 5.2 0.6 0.5
  endloop
endfacet
facet normal 0 0 1
  outer loop
    vertex 5.32 0.6 0.5
    vertex 5.26 0.5399999999999999 0.5
    vertex 5.32 0.48 0.5
  endloop
endfacet
facet normal 0 -1.4803e-15 1
  outer loop
    vertex 5.32 0 0.5
    vertex 5.26 0.06 0.5000000000000001
    vertex 5.2 0 0.5
  endloop
endfacet
facet normal -0 1.4803e-15 1
  outer loop
    vertex 5.2 0.12 0.5
    vertex 5.26 0.06 0.5000000000000001
    vertex 5.32 0.12 0.5
  endloop
endfacet
facet normal -1.4803e-15 0 1
  outer loop
    vertex 5.2 0 0.5
    vertex 5.26 0.06 0.5000000000000001
    vertex 5.2 0.12 0.5
  endloop
endfacet
facet normal 1.4803e-15 0 1
  outer loop
    vertex 5.32 0.12 0.5
    vertex 5.26 0.06 0.5000000000000001
    vertex 5.32 0 0.5
  endloop
endfacet
facet normal 0 1 0
  outer loop
    vertex 5.2 0.12 0
    vertex 5.32 0.12 0.5
    vertex 5.32 0.12 0
  endloop
endfacet
facet normal 0 1 0
  outer loop
    vertex 5.2 0.12 0
    vertex 5.2 0.12 0.5
    vertex 5.32 0.12 0.5
  endloop
endfacet
facet normal 1 0 0
  outer loop
    vertex 5.32 0.48 0.5
    vertex 5.32 0.48 0
    vertex 5.32 0.6 0
  endloop
endfacet
facet normal 1 0 0
  outer loop
    vertex 5.32 0.6 0.5
    vertex 5.32 0.48 0.5
    vertex 5.32 0.6 0
  endloop
endfacet
facet normal 1 0 0
  outer loop
    vertex 5.32 0 0.5
    vertex 5.32 0 0
    vertex 5.32 0.12 0
  endloop
endfacet
facet normal 1 0 0
  outer loop
    vertex 5.32 0.12 0.5
    vertex 5.32 0 0.5
    vertex 5.32 0.12 0
  endloop
endfacet
facet normal -1 0 0
  outer loop
    vertex 5.2 0.6 0
    vertex 5.2 0.48 0
    vertex 5.2 0.48 0.5
  endloop
endfacet
facet normal -1 0 0
  outer loop
    vertex 5.2 0.6 0
    vertex 5.2 0.48 0.5
    vertex 5.2 0.6 0.5
  endloop
endfacet
facet normal -1 0 0
  outer loop
    vertex 5.2 0.12 0
    vertex 5.2 0 0
    vertex 5.2 0 0.5
  endloop
endfacet
facet normal -1 0 0
  outer loop
    vertex 5.2 0.12 0
    vertex 5.2 0 0.5
    vertex 5.2 0.12 0.5
  endloop
endfacet
endsolid Created by Gmsh