solid Created by Gmsh
facet normal 0 0 -1
  outer loop
    vertex 4.5 0.6 0.6
    vertex 5.0 0.3 0.6
    vertex 4.5 0 0.6
  endloop
endfacet
facet normal 0 0 -1
  outer loop
    vertex 5.5 0 0.6
    vertex 5.0 0.3 0.6
    vertex 5.5 0.6 0.6
  endloop
endfacet
facet normal 0 0 -1
  outer loop
    vertex 4.5 0 0.6
    vertex 5.0 0.3 0.6
    vertex 5.5 0 0.6
  endloop
endfacet
facet normal -0 0 -1
  outer loop
    vertex 5.5 0.6 0.6
    vertex 5.0 0.3 0.6
    vertex 4.5 0.6 0.6
  endloop
endfacet
endsolid Created by Gmsh
